<svg width="48" height="48" viewBox="0 0 48 48" fill="none" xmlns="http://www.w3.org/2000/svg">
<path d="M4.57502 2.32425C3.30002 3.67425 0.675018 12.1492 11.7 23.2492C15.225 26.7742 17.85 24.1493 20.025 26.3993L39.75 46.1242C39.75 46.1242 44.025 44.6992 44.7 41.0993L5.62502 1.94925C5.62502 1.94925 5.25002 1.64925 4.57502 2.32425Z" fill="#757575"/>
<path d="M46.3501 8.25047C46.8751 7.27547 45.6751 7.57547 45.6751 7.57547C45.6751 7.57547 37.7251 15.2255 36.6001 14.3255C35.4751 13.4255 44.4001 6.07547 43.3501 4.65047C42.3751 3.37547 34.5751 12.5255 33.6001 11.4005C32.7001 10.2755 40.2751 2.32547 40.2751 2.32547C40.2751 2.32547 40.5751 1.12547 39.6001 1.65047C27.6001 8.10047 26.1001 14.1005 26.1001 14.1005C26.1001 14.1005 25.6501 15.3005 26.5501 16.2005C26.6251 16.2755 4.65005 38.1755 1.72505 41.1005C0.300054 42.5255 5.55005 47.7005 6.97505 46.2755C9.90005 43.3505 31.7251 21.3005 31.8001 21.3755C32.7001 22.2755 33.9001 21.9005 33.9001 21.9005C33.9001 21.9005 39.9001 20.3255 46.3501 8.25047Z" fill="black"/>
</svg>
