<svg width="32" height="32" viewBox="0 0 32 32" fill="none" xmlns="http://www.w3.org/2000/svg">
<path d="M22 3V5H25.563L22.188 8.406C20.9818 7.49497 19.5117 7.00143 18 7C16.13 7 14.384 7.74 13.062 9.063C12.4086 9.70858 11.8898 10.4775 11.5357 11.3251C11.1817 12.1727 10.9994 13.0821 10.9995 14.0007C10.9996 14.9193 11.182 15.8287 11.5363 16.6762C11.8905 17.5238 12.4094 18.2926 13.063 18.938C13.933 19.808 14.969 20.433 16.125 20.75C16.239 20.663 16.367 20.572 16.469 20.47C16.8882 20.0437 17.1894 19.5158 17.343 18.938C16.2542 18.8041 15.2418 18.3086 14.468 17.531C13.524 16.588 13 15.336 13 14C13 12.664 13.525 11.414 14.47 10.47C15.412 9.523 16.664 9 18 9C19.336 9 20.587 9.525 21.53 10.47C21.9964 10.9319 22.3665 11.4817 22.6189 12.0876C22.8712 12.6936 23.0008 13.3436 23 14C23 14.865 22.755 15.67 22.344 16.406C22.44 16.922 22.5 17.464 22.5 18C22.5 18.4993 22.4584 18.9893 22.375 19.47C22.575 19.307 22.753 19.122 22.938 18.938C24.26 17.614 25 15.87 25 14C25 12.47 24.496 11.016 23.594 9.812L27 6.438V10H29V3H22ZM15.875 11.25C15.761 11.337 15.633 11.428 15.531 11.53C15.099 11.964 14.817 12.49 14.657 13.063C15.747 13.203 16.742 13.679 17.532 14.469C18.477 15.412 19.002 16.664 19.002 17.999C19.002 19.334 18.477 20.585 17.532 21.529C16.588 22.477 15.336 23 14 23C12.664 23 11.413 22.475 10.47 21.53C10.0032 21.0685 9.63277 20.5187 9.38041 19.9127C9.12804 19.3066 8.99874 18.6565 9.00003 18C9.00003 17.135 9.24503 16.33 9.65603 15.594C9.55676 15.0684 9.50455 14.5349 9.50003 14C9.50003 13.5013 9.5417 13.0113 9.62503 12.53C9.42503 12.693 9.24803 12.878 9.06203 13.063C7.74203 14.384 7.00003 16.13 7.00003 18C7.00003 19.53 7.50403 20.984 8.40603 22.188L6.72003 23.875L4.72003 21.875L3.28003 23.281L5.28003 25.281L3.28003 27.281L4.72003 28.721L6.72003 26.721L8.72003 28.721L10.125 27.281L8.12503 25.281L9.81303 23.595C11.0181 24.5074 12.4885 25.0008 14 25C15.87 25 17.616 24.26 18.938 22.937C20.26 21.616 21 19.87 21 18C21 16.13 20.26 14.386 18.937 13.062C18.067 12.192 17.031 11.567 15.875 11.25Z" fill="black"/>
</svg>
