<svg width="108" height="108" viewBox="0 0 108 108" fill="none" xmlns="http://www.w3.org/2000/svg">
<path d="M76.3686 44.9216L62.8918 31.4448C61.8473 30.4004 61.3262 29.8793 60.7826 29.5648C60.0587 29.1472 59.2376 28.9273 58.4017 28.9273C57.5659 28.9273 56.7448 29.1472 56.0208 29.5648C55.4728 29.8793 54.9494 30.4026 53.9072 31.4448C52.865 32.487 52.3394 33.0126 52.0272 33.5539C51.6096 34.2779 51.3897 35.099 51.3897 35.9348C51.3897 36.7707 51.6096 37.5918 52.0272 38.3157C52.3439 38.8661 52.865 39.3872 53.9072 40.4294L67.384 53.9062C68.4285 54.9506 68.9496 55.4717 69.4932 55.7862C70.2171 56.2038 71.0382 56.4237 71.8741 56.4237C72.7099 56.4237 73.531 56.2038 74.255 55.7862C74.8008 55.474 75.3241 54.9506 76.3686 53.9062C77.413 52.8617 77.9364 52.3384 78.2486 51.797C78.6662 51.0731 78.8861 50.252 78.8861 49.4161C78.8861 48.5803 78.6662 47.7592 78.2486 47.0352C77.9341 46.4872 77.4108 45.9638 76.3686 44.9216ZM31.4459 62.8907L44.9227 76.3675C45.9671 77.412 46.4882 77.9331 47.0318 78.2475C47.7558 78.6652 48.5769 78.885 49.4127 78.885C50.2485 78.885 51.0696 78.6652 51.7936 78.2475C52.3439 77.9308 52.865 77.4097 53.9072 76.3675C54.9494 75.3253 55.4728 74.802 55.7872 74.2584C56.2049 73.5344 56.4247 72.7133 56.4247 71.8775C56.4247 71.0417 56.2049 70.2206 55.7872 69.4966C55.4728 68.9485 54.9494 68.4252 53.9072 67.383L40.4304 53.9062C39.386 52.8617 38.8649 52.3406 38.3213 52.0262C37.5973 51.6085 36.7762 51.3887 35.9404 51.3887C35.1046 51.3887 34.2835 51.6085 33.5595 52.0262C33.0092 52.3429 32.4881 52.864 31.4459 53.9062C30.4037 54.9484 29.8803 55.4717 29.5659 56.0153C29.1482 56.7393 28.9284 57.5604 28.9284 58.3962C28.9284 59.232 29.1482 60.0531 29.5659 60.7771C29.8826 61.3274 30.4037 61.8485 31.4459 62.8907Z" fill="black"/>
<path opacity="0.5" d="M62.33 48.8533L48.8532 62.3301L45.484 58.9609L58.9608 45.4841L62.33 48.8533ZM34.8149 72.9992C33.8185 72.0033 33.1814 70.7046 33.0037 69.3071C32.826 67.9096 33.1179 66.4927 33.8333 65.2792L42.5348 73.9808C41.3213 74.6962 39.9044 74.988 38.507 74.8104C37.1095 74.6327 35.8107 73.9956 34.8149 72.9992ZM72.9992 34.8149C73.9955 35.8108 74.6326 37.1095 74.8103 38.507C74.988 39.9045 74.6962 41.3214 73.9807 42.5349L65.2792 33.8333C66.4922 33.1182 67.9085 32.8263 69.3055 33.0035C70.7025 33.1808 72.0009 33.8172 72.9969 34.8127" fill="black"/>
</svg>
